# xmcd CD database file
#
# Track frame offsets:
#	225
#	22589
#	26862
#	45535
#	52898
#	79995
#	90982
#	92406
#	100664
#	106705
#	116986
#	126479
#	163005
#	170301
#	189808
#	197846
#	216258
#	220150
#	229983
#	242138
#
# Disc length: 3312 seconds
#
# Revision: 1
# Processed by: cddbd v1.5.2PL0 Copyright (c) Steve Scherf et al.
# Submitted via: CDex 1.70beta2
#
DISCID=030ced14
DTITLE=Poetry And Jazz In Concert  - Poetry And Jazz in Concert [CD1)
DYEAR=1900
DGENRE=Jazz
TTITLE0=Salvation March (Michael Garrick Quintet)
TTITLE1=Jeremy Robinson Introduces Adrian Mitchell
TTITLE2=Adrian Mitchell Reads Nostalgia - Now Threepence Off
TTITLE3=Adrian Mitchell  Reads Time And Motion Study 
TTITLE4=Adrian Mitchell Reads Veteran With A Head Wound
TTITLE5=Adrian Mitchell Reads Pals (With Jazz)
TTITLE6=Jeremy Robinson Introduces Dannie Abse
TTITLE7=Dannie Abse Reads Sunday Evening
TTITLE8=Dannie Abse Reads Extract From The Abandoned
TTITLE9=Dannie Abse Reads Odd
TTITLE10=Dannie Abse Reads Epithalamion
TTITLE11=Wedding Hymn (Michael Garrick Quintet)
TTITLE12=Dannie Abse Talks About An Irishman
TTITLE13=Dannie Abse Reads Victim Of Aulis
TTITLE14=Cascade (Jeremy Robinson and The Michael Garrick Quintet) 
TTITLE15=Blues For The Lonely (Jeremy Robinson and The Michael Garrick Quintet)
TTITLE16=Before Night/Day (Jeremy Robinson and The Michael Garrick Quintet) 
TTITLE17=Day Of Atonement (Jeremy Robinson and The Michael Garrick Quintet)
TTITLE18=Sketches Of Israel (Jeremy Robinson and The Michael Garrick Quintet)
TTITLE19=The Game (Jeremy Robinson and The Michael Garrick Quintet) 
EXTD=
EXTT0=
EXTT1=
EXTT2=
EXTT3=
EXTT4=
EXTT5=
EXTT6=
EXTT7=
EXTT8=
EXTT9=
EXTT10=
EXTT11=
EXTT12=
EXTT13=
EXTT14=
EXTT15=
EXTT16=
EXTT17=
EXTT18=
EXTT19=
PLAYORDER=
